<?xml version="1.0" encoding="iso-8859-1"?>
<!-- Generator: Adobe Illustrator 28.1.0, SVG Export Plug-In . SVG Version: 6.00 Build 0)  -->
<svg version="1.1" xmlns="http://www.w3.org/2000/svg" xmlns:xlink="http://www.w3.org/1999/xlink" x="0px" y="0px"
	 viewBox="0 0 43.996 25.685" style="enable-background:new 0 0 43.996 25.685;" xml:space="preserve">
<g id="IC_and_diodes">
	<g>
		<g id="XMLID_00000163073195819781216510000006791046278128465549_">
			<g>
			</g>
			<g>
				<polygon style="fill:none;stroke:#000000;stroke-width:0.5;stroke-miterlimit:10;" points="43.52,15.49 29.57,7.3 19.08,13.77 
					33.04,22.34 				"/>
				<polyline style="fill:none;stroke:#000000;stroke-width:0.5;stroke-miterlimit:10;" points="43.73,15.49 43.73,18.36 
					33.08,25.39 18.85,16.56 18.73,16.49 				"/>
				<polyline style="fill:none;stroke:#000000;stroke-width:0.5;stroke-miterlimit:10;" points="18.85,13.77 18.85,16.56 
					18.85,16.71 				"/>
				<line style="fill:none;stroke:#000000;stroke-width:0.5;stroke-miterlimit:10;" x1="33.04" y1="22.34" x2="33.08" y2="25.39"/>
			</g>
		</g>
		<path style="fill:none;stroke:#000000;stroke-width:0.5;stroke-miterlimit:10;" d="M21.452,15.228"/>
		<path style="fill:none;stroke:#000000;stroke-width:0.5;stroke-miterlimit:10;" d="M21.949,14.919"/>
		<path style="fill:none;stroke:#000000;stroke-width:0.5;stroke-miterlimit:10;" d="M21.949,14.919"/>
		<path style="fill:none;stroke:#000000;stroke-width:0.5;stroke-miterlimit:10;" d="M24.051,13.61"/>
		<path style="fill:none;stroke:#000000;stroke-width:0.5;stroke-miterlimit:10;" d="M24.051,13.61"/>
		<path style="fill:none;stroke:#000000;stroke-width:0.5;stroke-miterlimit:10;" d="M25.03,13"/>
		<path style="fill:none;stroke:#000000;stroke-width:0.5;stroke-miterlimit:10;" d="M25.03,13"/>
		<path style="fill:none;stroke:#000000;stroke-width:0.5;stroke-miterlimit:10;" d="M29.537,10.194"/>
		<path style="fill:none;stroke:#000000;stroke-width:0.5;stroke-miterlimit:10;" d="M29.537,10.194"/>
		<path style="fill:none;stroke:#000000;stroke-width:0.5;stroke-miterlimit:10;" d="M41.05,17.026"/>
		<path style="fill:none;stroke:#000000;stroke-width:0.5;stroke-miterlimit:10;" d="M41.05,17.026"/>
		<path style="fill:none;stroke:#000000;stroke-width:0.5;stroke-miterlimit:10;" d="M43.524,18.494"/>
		<path style="fill:none;stroke:#000000;stroke-width:0.5;stroke-miterlimit:10;" d="M18.92,16.545"/>
		<path style="fill:none;stroke:#000000;stroke-width:0.5;stroke-miterlimit:10;" d="M21.452,15.228"/>
	</g>
	<polygon style="fill:#FF8080;" points="13.566,7.565 10.476,5.689 13.625,3.832 16.716,5.689 	"/>
	<polygon style="fill:#8080FF;" points="3.09,17.839 0,15.963 3.149,14.106 6.24,15.963 	"/>
	<polygon style="fill:#80FF80;" points="20.962,3.733 17.872,1.857 21.022,0 24.112,1.857 	"/>
</g>
<g id="Layer_1">
</g>
</svg>
