<?xml version="1.0" encoding="iso-8859-1"?>
<!-- Generator: Adobe Illustrator 28.1.0, SVG Export Plug-In . SVG Version: 6.00 Build 0)  -->
<svg version="1.1" xmlns="http://www.w3.org/2000/svg" xmlns:xlink="http://www.w3.org/1999/xlink" x="0px" y="0px"
	 viewBox="0 0 150.95 103.82" style="enable-background:new 0 0 150.95 103.82;" xml:space="preserve">
<g id="Top_cover">
	<g id="XMLID_00000013893937891539643280000006354545442032059320_">
		<g>
		</g>
		<g>
			<line style="fill:none;stroke:#000000;stroke-width:0.5;stroke-miterlimit:10;" x1="82.86" y1="87.76" x2="67.33" y2="87.76"/>
			<line style="fill:none;stroke:#000000;stroke-width:0.5;stroke-miterlimit:10;" x1="67.33" y1="87.76" x2="67.36" y2="85.37"/>
			<line style="fill:none;stroke:#000000;stroke-width:0.5;stroke-miterlimit:10;" x1="67.33" y1="87.76" x2="75.46" y2="93.52"/>
			<line style="fill:none;stroke:#000000;stroke-width:0.5;stroke-miterlimit:10;" x1="82.86" y1="85.45" x2="82.86" y2="87.76"/>
			<line style="fill:none;stroke:#000000;stroke-width:0.5;stroke-miterlimit:10;" x1="75.46" y1="93.52" x2="82.86" y2="87.76"/>
			<path style="fill:none;stroke:#000000;stroke-width:0.5;stroke-miterlimit:10;" d="M45.79,58.31
				c-8.19-8.58-5.53-19.49,6.32-26.05c12.91-7.15,33.06-7.04,46.21,0.26c12.06,6.69,15.08,17.61,7.22,26.09"/>
			<path style="fill:none;stroke:#000000;stroke-width:0.5;stroke-miterlimit:10;" d="M58.95,66.3c-3.2-1.12-6.19-2.57-8.83-4.36
				c-1.62-1.1-3.03-2.27-4.19-3.49"/>
			<path style="fill:none;stroke:#000000;stroke-width:0.5;stroke-miterlimit:10;" d="M105.42,58.73c-1.14,1.24-2.54,2.42-4.17,3.53
				c-3.52,2.39-7.69,4.15-12.2,5.28c-9.61,2.44-20.7,2.03-30-1.21"/>
			<path style="fill:none;stroke:#000000;stroke-width:0.5;stroke-miterlimit:10;" d="M45.79,58.31
				c-11.32-10.89-8.91-25.87,4.85-34.63c13.89-8.84,35.47-8.77,49.52,0.18c13.96,8.88,16.61,23.93,5.38,34.75
				c-0.04,0.04-0.08,0.08-0.12,0.12c-0.68,0.65-1.42,1.29-2.21,1.91c-4.05,3.19-8.92,5.49-14.16,6.9c-9.68,2.63-20.61,2.22-30-1.21
				c-0.03,0-0.07-0.01-0.1-0.03c-3.92-1.43-7.57-3.4-10.74-5.89c-0.81-0.64-1.57-1.29-2.28-1.96C45.89,58.4,45.84,58.36,45.79,58.31
				z"/>
			
				<polyline style="fill:none;stroke:#000000;stroke-width:0.5;stroke-linecap:round;stroke-linejoin:round;stroke-miterlimit:10;" points="
				67.35,85.37 67.36,85.37 82.86,85.45 82.91,85.45 			"/>
			
				<line style="fill:none;stroke:#000000;stroke-width:0.5;stroke-linecap:round;stroke-linejoin:round;stroke-miterlimit:10;" x1="0.25" y1="38.61" x2="67.35" y2="85.37"/>
			
				<polyline style="fill:none;stroke:#000000;stroke-width:0.5;stroke-linecap:round;stroke-linejoin:round;stroke-miterlimit:10;" points="
				150.7,38.27 75.76,0.25 0.25,38.61 			"/>
			
				<line style="fill:none;stroke:#000000;stroke-width:0.5;stroke-linecap:round;stroke-linejoin:round;stroke-miterlimit:10;" x1="82.91" y1="85.45" x2="150.7" y2="38.27"/>
			
				<line style="fill:none;stroke:#000000;stroke-width:0.5;stroke-linecap:round;stroke-linejoin:round;stroke-miterlimit:10;" x1="75.46" y1="103.57" x2="148.52" y2="52.72"/>
			
				<line style="fill:none;stroke:#000000;stroke-width:0.5;stroke-linecap:round;stroke-linejoin:round;stroke-miterlimit:10;" x1="75.46" y1="93.52" x2="75.46" y2="103.57"/>
			
				<line style="fill:none;stroke:#000000;stroke-width:0.5;stroke-linecap:round;stroke-linejoin:round;stroke-miterlimit:10;" x1="150.7" y1="38.27" x2="148.52" y2="52.72"/>
			
				<line style="fill:none;stroke:#000000;stroke-width:0.5;stroke-linecap:round;stroke-linejoin:round;stroke-miterlimit:10;" x1="2.48" y1="53.1" x2="75.46" y2="103.57"/>
			
				<line style="fill:none;stroke:#000000;stroke-width:0.5;stroke-linecap:round;stroke-linejoin:round;stroke-miterlimit:10;" x1="2.48" y1="53.1" x2="0.25" y2="38.61"/>
		</g>
	</g>
	<path style="fill:none;stroke:#000000;stroke-width:0.5;stroke-linecap:round;stroke-linejoin:round;stroke-miterlimit:10;" d="
		M44.008,29.314"/>
	<path style="fill:none;stroke:#000000;stroke-width:0.5;stroke-linecap:round;stroke-linejoin:round;stroke-miterlimit:10;" d="
		M85.497,18.124"/>
	<path style="fill:none;stroke:#000000;stroke-width:0.5;stroke-linecap:round;stroke-linejoin:round;stroke-miterlimit:10;" d="
		M105.896,28.474"/>
	<path style="fill:none;stroke:#000000;stroke-width:0.5;stroke-linecap:round;stroke-linejoin:round;stroke-miterlimit:10;" d="
		M150.698,51.205"/>
	<path style="fill:none;stroke:#000000;stroke-width:0.5;stroke-linecap:round;stroke-linejoin:round;stroke-miterlimit:10;" d="
		M2.482,53.102"/>
	<path style="fill:none;stroke:#000000;stroke-width:0.5;stroke-linecap:round;stroke-linejoin:round;stroke-miterlimit:10;" d="
		M0.247,51.544"/>
	<path style="fill:none;stroke:#000000;stroke-width:0.5;stroke-linecap:round;stroke-linejoin:round;stroke-miterlimit:10;" d="
		M0.247,51.544"/>
	<path style="fill:none;stroke:#000000;stroke-width:0.5;stroke-linecap:round;stroke-linejoin:round;stroke-miterlimit:10;" d="
		M44.008,29.314"/>
</g>
<g id="Layer_1">
</g>
</svg>
