<?xml version="1.0" encoding="iso-8859-1"?>
<!-- Generator: Adobe Illustrator 28.1.0, SVG Export Plug-In . SVG Version: 6.00 Build 0)  -->
<svg version="1.1" xmlns="http://www.w3.org/2000/svg" xmlns:xlink="http://www.w3.org/1999/xlink" x="0px" y="0px"
	 viewBox="0 0 47.074 27.071" style="enable-background:new 0 0 47.074 27.071;" xml:space="preserve">
<g id="Gold_wires">
	<path d="M13.192,10.117c-0.483,0.28-1.267,0.271-1.749-0.02c-0.481-0.291-0.478-0.751,0.005-1.029
		c0.482-0.277,1.262-0.268,1.743,0.02C13.673,9.377,13.675,9.838,13.192,10.117z"/>
	<path d="M26.054,1.09c-0.46,0.267-1.178,0.286-1.602,0.042c-0.423-0.243-0.393-0.655,0.067-0.921
		c0.459-0.265,1.173-0.283,1.597-0.042C26.54,0.412,26.513,0.824,26.054,1.09z"/>
	<path d="M33.421,2.45c-0.368,0.219-0.996,0.209-1.4-0.022c-0.404-0.23-0.432-0.594-0.063-0.811
		c0.368-0.217,0.992-0.208,1.396,0.021C33.758,1.868,33.789,2.231,33.421,2.45z"/>
	<path d="M46.691,12.088c-0.476,0.299-1.208,0.342-1.635,0.097c-0.426-0.245-0.384-0.684,0.092-0.981
		c0.475-0.296,1.203-0.339,1.629-0.096C47.204,11.351,47.166,11.79,46.691,12.088z"/>
	<path d="M2.117,24.459c-0.449,0.27-1.219,0.223-1.718-0.105c-0.498-0.327-0.536-0.81-0.087-1.078
		c0.448-0.268,1.214-0.221,1.711,0.105C2.523,23.706,2.566,24.189,2.117,24.459z"/>
	<path d="M21.323,26.867c-0.458,0.289-1.232,0.268-1.726-0.047c-0.493-0.314-0.52-0.801-0.062-1.088
		c0.457-0.286,1.226-0.265,1.72,0.046C21.749,26.092,21.78,26.579,21.323,26.867z"/>
	<path d="M8.361,20.778c-0.426,0.256-1.168,0.209-1.656-0.105c-0.487-0.313-0.536-0.772-0.11-1.026
		c0.425-0.253,1.163-0.207,1.651,0.104C8.734,20.063,8.787,20.523,8.361,20.778z"/>
	<path d="M30.446,19.505c-0.311,0.195-0.846,0.182-1.192-0.029c-0.346-0.211-0.374-0.539-0.063-0.734
		c0.311-0.194,0.843-0.181,1.189,0.029C30.727,18.982,30.757,19.311,30.446,19.505z"/>
	<path d="M32.236,18.386c-0.309,0.194-0.841,0.181-1.188-0.029c-0.346-0.209-0.376-0.535-0.067-0.728
		c0.309-0.192,0.839-0.18,1.185,0.029C32.513,17.866,32.545,18.192,32.236,18.386z"/>
	<path d="M33.764,17.138c-0.307,0.192-0.837,0.179-1.183-0.029c-0.346-0.208-0.377-0.531-0.071-0.722
		c0.306-0.191,0.834-0.178,1.18,0.029C34.037,16.623,34.071,16.946,33.764,17.138z"/>
	<path d="M38.831,25.393c-0.312,0.203-0.857,0.189-1.217-0.03c-0.359-0.219-0.397-0.561-0.085-0.763
		c0.311-0.202,0.855-0.188,1.214,0.03C39.103,24.849,39.143,25.19,38.831,25.393z"/>
	<path d="M41.633,23.725c-0.308,0.201-0.851,0.187-1.21-0.03c-0.359-0.217-0.4-0.555-0.092-0.754
		c0.308-0.199,0.848-0.186,1.207,0.03C41.898,23.187,41.941,23.525,41.633,23.725z"/>
	<path d="M39.712,18.602c-0.304,0.194-0.837,0.181-1.19-0.029c-0.352-0.21-0.39-0.536-0.086-0.729
		c0.304-0.193,0.835-0.18,1.187,0.029C39.976,18.081,40.016,18.408,39.712,18.602z"/>
	<path d="M28.132,19.889c-0.313,0.196-0.848,0.183-1.194-0.029c-0.345-0.211-0.37-0.541-0.057-0.735
		c0.313-0.194,0.846-0.181,1.191,0.029C28.418,19.364,28.445,19.694,28.132,19.889z"/>
	<path style="fill:none;stroke:#000000;stroke-width:0.5;stroke-miterlimit:10;" d="M40.981,23.333"/>
	<path style="fill:none;stroke:#000000;stroke-width:0.5;stroke-miterlimit:10;" d="M45.918,11.647c0,0-5.266,11.173-4.937,11.687"
		/>
	<path style="fill:none;stroke:#000000;stroke-width:0.5;stroke-miterlimit:10;" d="M20.428,26.301"/>
	<path style="fill:none;stroke:#000000;stroke-width:0.5;stroke-miterlimit:10;" d="M39.074,18.222c0,0-6.069-18.214-6.386-16.188"
		/>
	<path style="fill:none;stroke:#000000;stroke-width:0.5;stroke-miterlimit:10;" d="M1.214,23.867c0,0,38.146-2.063,37.018,1.13"/>
	<path style="fill:none;stroke:#000000;stroke-width:0.5;stroke-miterlimit:10;" d="M31.608,18.008
		c-1.392-5.459-13.312-7.757-13.312-7.757"/>
	<path style="fill:none;stroke:#000000;stroke-width:0.5;stroke-miterlimit:10;" d="M29.818,19.125
		c1.881-4.995-22.341,1.089-22.341,1.089l4.841-10.92"/>
	<path d="M19.18,10.887c-0.426,0.256-1.168,0.209-1.656-0.105c-0.487-0.313-0.536-0.772-0.11-1.026
		c0.425-0.253,1.163-0.207,1.651,0.104C19.552,10.172,19.605,10.632,19.18,10.887z"/>
	<path d="M26.832,7.21c-0.426,0.256-1.168,0.209-1.656-0.105c-0.487-0.313-0.536-0.772-0.11-1.026
		c0.425-0.253,1.163-0.207,1.651,0.104C27.205,6.495,27.257,6.954,26.832,7.21z"/>
	<path style="fill:none;stroke:#000000;stroke-width:0.5;stroke-miterlimit:10;" d="M27.693,19.446
		c-5.428-0.984-7.079,6.794-7.079,6.794"/>
	<path style="fill:none;stroke:#000000;stroke-width:0.5;stroke-miterlimit:10;" d="M33.137,16.763
		c1.053-2.107-7.189-10.118-7.189-10.118l-0.553-5.993"/>
</g>
<g id="Layer_1">
</g>
</svg>
