<?xml version="1.0" encoding="UTF-8"?>
<svg id="Layer_1" data-name="Layer 1" xmlns="http://www.w3.org/2000/svg" viewBox="0 0 320 320">
  <defs>
    <style>
      .cls-1 {
        fill: #8080ff;
      }

      .cls-1, .cls-2, .cls-3 {
        stroke-width: 0px;
      }

      .cls-4 {
        fill: none;
        stroke: #fff;
        stroke-miterlimit: 10;
        stroke-width: 8px;
      }

      .cls-2 {
        fill: #80ff80;
      }

      .cls-3 {
        fill: #ff8080;
      }
    </style>
  </defs>
  <rect class="cls-4" x="32.9" y="32.48" width="254.5" height="254.5" rx="4" ry="4"/>
  <circle class="cls-4" cx="161.71" cy="158.17" r="85.74"/>
  <circle class="cls-4" cx="161.71" cy="158.17" r="104"/>
  <path class="cls-4" d="M142.93,75.21v28.18c0,1.9.68,3.74,1.91,5.18l16.98,19.96c1.52,1.79,3.75,2.82,6.09,2.82h38.86c4.42,0,8-3.58,8-8v-1.65c0-4.41,3.56-7.98,7.97-8l12.27-.05"/>
  <line class="cls-4" x1="162.26" y1="197.48" x2="162.26" y2="197.48"/>
  <path class="cls-4" d="M246.87,148.15h-77.58c-2.23,0-4.05,1.46-4.05,3.27v31.29c0,1.87-.65,3.68-1.85,5.11l-7.28,8.77c-1.19,1.44-1.85,3.25-1.85,5.11v41.88"/>
  <path class="cls-4" d="M88.67,203.09h44.89c2.21,0,4,1.79,4,4v33.37"/>
  <path class="cls-4" d="M81.32,188.03h58.05c4.42,0,8-3.58,8-8v-41.38c0-2.06-.8-4.05-2.23-5.54l-14.05-14.65c-3-3.12-4.69-7.27-4.73-11.6l.32-26.72"/>
  <path class="cls-4" d="M32.9,54.17h-7.66c-2.21,0-4,1.79-4,4v35.99c0,2.21,1.79,4,4,4h7.66"/>
  <path class="cls-4" d="M32.9,221.59h-7.66c-2.21,0-4,1.79-4,4v35.99c0,2.21,1.79,4,4,4h7.66"/>
  <path class="cls-4" d="M287.4,54.17h7.66c2.21,0,4,1.79,4,4v35.99c0,2.21-1.79,4-4,4h-7.66"/>
  <path class="cls-4" d="M287.4,221.92h7.66c2.21,0,4,1.79,4,4v35.99c0,2.21-1.79,4-4,4h-7.66"/>
  <path class="cls-3" d="M182.35,165.39c-.28.25-.96.2-2.13.21-2.37,0-5.16,0-7.57,0-1.6,0-1.79-.09-1.78-1.6,0-2.57,0-5.66,0-8.17,0-.93,0-1.47.26-1.72.25-.25.79-.25,1.72-.26,2.44,0,5.47,0,7.98,0,1.6,0,1.79.09,1.78,1.6,0,2.46,0,5.33,0,7.75,0,1.17.04,1.85-.21,2.13l-.05.05Z"/>
  <path class="cls-2" d="M182.35,197.27c-.28.25-.96.2-2.13.21-2.37,0-5.16,0-7.57,0-1.6,0-1.79-.09-1.78-1.6,0-2.57,0-5.66,0-8.17,0-.93,0-1.47.26-1.72.25-.25.79-.25,1.72-.26,2.44,0,5.47,0,7.98,0,1.6,0,1.79.09,1.78,1.6,0,2.46,0,5.33,0,7.75,0,1.17.04,1.85-.21,2.13l-.05.05Z"/>
  <path class="cls-1" d="M182.35,125.14c-.28.25-.96.2-2.13.21-2.37,0-5.16,0-7.57,0-1.6,0-1.79-.09-1.78-1.6,0-2.57,0-5.66,0-8.17,0-.93,0-1.47.26-1.72.25-.25.79-.25,1.72-.26,2.44,0,5.47,0,7.98,0,1.6,0,1.79.09,1.78,1.6,0,2.46,0,5.33,0,7.75,0,1.17.04,1.85-.21,2.13l-.05.05Z"/>
  <rect class="cls-4" x="88.35" y="142.11" width="49.53" height="35.23"/>
</svg>